<?xml version="1.0" encoding="UTF-8"?>
<svg width="18px" height="15px" viewBox="0 0 18 15" version="1.1" xmlns="http://www.w3.org/2000/svg" xmlns:xlink="http://www.w3.org/1999/xlink">
    <!-- Generator: Sketch 54.1 (76490) - https://sketchapp.com -->
    <title>user</title>
    <desc>Created with Sketch.</desc>
    <g id="Page-1" stroke="none" stroke-width="1" fill="none" fill-rule="evenodd">
        <g id="A.-Log-in" transform="translate(-1089.000000, -587.000000)" fill="#E7E6E4" fill-rule="nonzero">
            <g id="user" transform="translate(1089.000000, 587.000000)">
                <path d="M10.3846154,3.75006868 C10.3846154,5.82114149 8.70565027,7.5 6.63461538,7.5 C4.5635805,7.5 2.88461538,5.82114149 2.88461538,3.75006868 C2.88461538,1.67899583 4.5635805,0 6.63461538,0 C8.70565027,0 10.3846154,1.67899583 10.3846154,3.75006868 Z" id="Path"></path>
                <path d="M9.76767321,8.65384615 L3.50155756,8.65384615 C1.57091583,8.65384615 0,10.1564613 0,12.0031621 L0,14.4711538 C0,14.7630779 0.247691236,15 0.552884615,15 L12.7163462,15 C13.0215395,15 13.2692308,14.7630779 13.2692308,14.4711538 L13.2692308,12.0031621 C13.2692308,10.1564613 11.6983149,8.65384615 9.76767321,8.65384615 Z" id="Path"></path>
                <path d="M17.1422626,5.94910241 L14.7191286,3.60509241 C14.6215187,3.51053434 14.4941187,3.46153846 14.366085,3.46153846 C14.0226757,3.46153846 13.8460905,3.76594676 13.8460905,4.00181369 L13.8460905,5.62462033 L11.076885,5.62462033 C10.6940514,5.62462033 10.3846154,5.94764969 10.3846154,6.34582369 C10.3846154,6.74399769 10.6940514,7.06702705 11.076885,7.06702705 L13.8460905,7.06702705 L13.8460905,8.68983369 C13.8460905,8.98988387 14.0801007,9.23076923 14.3653244,9.23076923 C14.4941187,9.23076923 14.6208848,9.18111304 14.7191286,9.08655497 L17.1422626,6.74254497 C17.2474784,6.64006304 17.3076923,6.49584878 17.3076923,6.34582369 C17.3076923,6.1957986 17.2474784,6.05158434 17.1422626,5.94910241 L17.1422626,5.94910241 Z" id="Path"></path>
            </g>
        </g>
    </g>
</svg>