<?xml version="1.0" encoding="UTF-8"?>
<svg width="40px" height="40px" viewBox="0 0 40 40" version="1.1" xmlns="http://www.w3.org/2000/svg" xmlns:xlink="http://www.w3.org/1999/xlink">
    <!-- Generator: Sketch 54.1 (76490) - https://sketchapp.com -->
    <title>OS/icon/sidemenu/password</title>
    <desc>Created with Sketch.</desc>
    <g id="Page-1" stroke="none" stroke-width="1" fill="none" fill-rule="evenodd">
        <g id="B.-Guest-Management-_-Guestlist" transform="translate(-40.000000, -948.000000)" fill="#969696" fill-rule="nonzero">
            <g id="OS/el/sidemenu" transform="translate(0.000000, 3.000000)">
                <g id="logout" transform="translate(40.000000, 940.000000)">
                    <g id="OS/icon/sidemenu/password" transform="translate(0.000000, 5.000000)">
                        <g id="password" transform="translate(8.000000, 7.000000)">
                            <circle id="Oval" cx="17.8242188" cy="18.2460938" r="1.0546875"></circle>
                            <path d="M22.5703125,19.0898438 C23.1528164,19.0898438 23.625,18.6176602 23.625,18.0351562 L23.625,14.1328125 C23.625,11.8065938 21.7324688,9.9140625 19.40625,9.9140625 L18.1386738,9.9140625 L18.1386738,6.19449609 C18.1386738,2.77883789 15.299877,0 11.8105488,0 C8.3212207,0 5.48242383,2.77883789 5.48242383,6.19449609 L5.48242383,9.9140625 L4.21875,9.9140625 C1.89253125,9.9140625 0,11.8065938 0,14.1328125 L0,22.78125 C0,25.1074688 1.89253125,27 4.21875,27 L19.40625,27 C21.7324688,27 23.625,25.1074688 23.625,22.78125 C23.625,22.1987461 23.1528164,21.7265625 22.5703125,21.7265625 C21.9878086,21.7265625 21.515625,22.1987461 21.515625,22.78125 C21.515625,23.9443594 20.5693594,24.890625 19.40625,24.890625 L4.21875,24.890625 C3.05564063,24.890625 2.109375,23.9443594 2.109375,22.78125 L2.109375,14.1328125 C2.109375,12.9697031 3.05564063,12.0234375 4.21875,12.0234375 L19.40625,12.0234375 C20.5693594,12.0234375 21.515625,12.9697031 21.515625,14.1328125 L21.515625,18.0351562 C21.515625,18.6176602 21.9878086,19.0898438 22.5703125,19.0898438 Z M16.0292988,9.9140625 L7.59179883,9.9140625 L7.59179883,6.19449609 C7.59179883,3.94194727 9.48433008,2.109375 11.8105488,2.109375 C14.1367676,2.109375 16.0292988,3.94194727 16.0292988,6.19449609 L16.0292988,9.9140625 Z" id="Shape"></path>
                            <circle id="Oval" cx="9.86132812" cy="18.2460938" r="1.0546875"></circle>
                            <circle id="Oval" cx="5.90625" cy="18.2460938" r="1.0546875"></circle>
                            <circle id="Oval" cx="13.8164063" cy="18.2460938" r="1.0546875"></circle>
                        </g>
                    </g>
                </g>
            </g>
        </g>
    </g>
</svg>