<?xml version="1.0" encoding="UTF-8"?>
<svg width="40px" height="40px" viewBox="0 0 40 40" version="1.1" xmlns="http://www.w3.org/2000/svg" xmlns:xlink="http://www.w3.org/1999/xlink">
    <!-- Generator: Sketch 54.1 (76490) - https://sketchapp.com -->
    <title>OS/icon/sidemenu/kpi</title>
    <desc>Created with Sketch.</desc>
    <g id="Page-1" stroke="none" stroke-width="1" fill="none" fill-rule="evenodd">
        <g id="B.-Guest-Management-_-Guestlist" transform="translate(-40.000000, -597.000000)" fill="#969696" fill-rule="nonzero">
            <g id="OS/el/sidemenu" transform="translate(0.000000, 3.000000)">
                <g id="KPI" transform="translate(40.000000, 589.000000)">
                    <g id="OS/icon/sidemenu/kpi" transform="translate(0.000000, 5.000000)">
                        <path d="M34.1946309,29.3372148 L32.5647651,29.3372148 L32.5647651,17.3406376 C32.5647651,16.9236577 32.2267114,16.585604 31.8097315,16.585604 L26.4406376,16.585604 C26.0236577,16.585604 25.685604,16.9236577 25.685604,17.3406376 L25.685604,26.177953 C25.685604,26.5949329 26.0236577,26.9329866 26.4406376,26.9329866 C26.8576174,26.9329866 27.1956711,26.5949329 27.1956711,26.177953 L27.1956711,18.0956711 L31.054698,18.0956711 L31.054698,29.3373154 L26.4406376,29.3373154 L23.4143624,29.3373154 L23.4143624,17.3406376 C23.4143624,16.9236577 23.0763087,16.585604 22.6593289,16.585604 C22.242349,16.585604 21.9042953,16.9236577 21.9042953,17.3406376 L21.9042953,29.3373154 L18.0452685,29.3373154 L18.0452685,11.552047 L22.6593289,11.552047 C23.0763087,11.552047 23.4143624,11.2139933 23.4143624,10.7970134 C23.4143624,10.3800336 23.0763087,10.0419799 22.6593289,10.0419799 L17.2902349,10.0419799 C16.873255,10.0419799 16.5352013,10.3800336 16.5352013,10.7970134 L16.5352013,29.3373154 L14.2640604,29.3373154 L14.2640604,21.0319463 C14.2640604,20.6149664 13.9260067,20.2769128 13.5090268,20.2769128 L8.13993289,20.2769128 C7.72295302,20.2769128 7.38489933,20.6149664 7.38489933,21.0319463 L7.38489933,29.3373154 L5.75503356,29.3373154 C5.33805369,29.3373154 5,29.6753691 5,30.092349 C5,30.5093289 5.33805369,30.8473826 5.75503356,30.8473826 L8.13993289,30.8473826 L13.5090268,30.8473826 L17.2903356,30.8473826 L22.6594295,30.8473826 L26.4407383,30.8473826 L31.8098322,30.8473826 L34.1946309,30.8473826 C34.6116107,30.8473826 34.9496644,30.5093289 34.9496644,30.092349 C34.9496644,29.6753691 34.6116107,29.3372148 34.1946309,29.3372148 Z M8.89496644,29.3372148 L8.89496644,21.7868792 L12.7539933,21.7868792 L12.7539933,29.3372148 L8.89496644,29.3372148 Z" id="Shape"></path>
                    </g>
                </g>
            </g>
        </g>
    </g>
</svg>