<?xml version="1.0" encoding="UTF-8"?>
<svg width="40px" height="40px" viewBox="0 0 40 40" version="1.1" xmlns="http://www.w3.org/2000/svg" xmlns:xlink="http://www.w3.org/1999/xlink">
    <!-- Generator: Sketch 54.1 (76490) - https://sketchapp.com -->
    <title>OS/icon/side/guest</title>
    <desc>Created with Sketch.</desc>
    <g id="Page-1" stroke="none" stroke-width="1" fill="none" fill-rule="evenodd">
        <g id="B.-Guest-Management-_-Guestlist" transform="translate(-40.000000, -280.000000)" fill="#D5B22D" fill-rule="nonzero">
            <g id="OS/el/sidemenu" transform="translate(0.000000, 3.000000)">
                <g id="OS/el/sidemenu-active" transform="translate(40.000000, 272.000000)">
                    <g id="OS/icon/side/guest" transform="translate(0.000000, 5.000000)">
                        <path d="M34.8961811,19.9481496 C34.8961811,11.7057087 28.1904724,5 19.9481496,5 C16.0717717,5 12.3970079,6.47744094 9.60086614,9.16007874 C9.24783465,9.4988189 9.23625984,10.0594882 9.57488189,10.4125197 C9.91350394,10.7655512 10.4742913,10.7770079 10.8273228,10.4385039 C13.2920472,8.07393701 16.5312205,6.77165354 19.9481496,6.77165354 C27.2137008,6.77165354 33.1246457,12.6825984 33.1246457,19.9481496 C33.1246457,23.2522835 31.8952362,26.4130315 29.6627165,28.8483465 C27.1715354,31.5659449 23.6307087,33.1246457 19.9481496,33.1246457 C16.4151181,33.1246457 13.0123622,31.6898425 10.5418504,29.1733858 C10.5564961,29.1100787 10.5727953,29.0474803 10.5888583,28.9847638 C10.6016142,28.9348031 10.6134252,28.8844882 10.6270079,28.8348819 C10.6477953,28.7592913 10.6709449,28.6847638 10.6937402,28.6101181 C10.7073228,28.5658268 10.7196063,28.5209449 10.7337795,28.4770079 C10.7614173,28.391378 10.7915354,28.3070472 10.8217717,28.2227165 C10.8332283,28.1908268 10.8435039,28.1583465 10.855315,28.1265748 C10.9414173,27.8948425 11.0372047,27.668189 11.1419685,27.4470866 C11.1576772,27.4140157 11.1748031,27.3818898 11.1908661,27.3490551 C11.2284252,27.2722835 11.2659843,27.1955118 11.3057874,27.1201575 C11.326811,27.0803543 11.3493701,27.0414961 11.3711024,27.0020472 C11.4078346,26.9350787 11.4442126,26.867874 11.4825984,26.8020866 C11.5072835,26.759685 11.533622,26.7183465 11.5590157,26.6764173 C11.5963386,26.6148819 11.6334252,26.5532283 11.6721654,26.4927559 C11.6998031,26.4497638 11.7287402,26.4079528 11.7570866,26.3655512 C11.7958268,26.3076772 11.8342126,26.2495669 11.874252,26.1926378 C11.9043701,26.1497638 11.9357874,26.1080709 11.9667323,26.0657874 C12.0068898,26.0109843 12.046811,25.956063 12.0881496,25.9023228 C12.1206299,25.8600394 12.1544094,25.8187008 12.1877165,25.777126 C12.2294094,25.7250394 12.2709843,25.6727165 12.3138583,25.6216929 C12.3484646,25.5803543 12.3841339,25.5400787 12.4195669,25.4994488 C12.4629134,25.4497244 12.5062598,25.4 12.5507874,25.3512205 C12.5874016,25.311063 12.6249606,25.2719685 12.6622835,25.2325197 C12.7074016,25.1850394 12.7525197,25.1375591 12.7985827,25.0911417 C12.8370866,25.0524016 12.8762992,25.0146063 12.9153937,24.9766929 C12.9621654,24.9314567 13.0090551,24.8862205 13.0568898,24.8420472 C13.0971654,24.8048425 13.1380315,24.7683465 13.1788976,24.7319685 C13.2272047,24.6888583 13.2758661,24.6461024 13.3251181,24.6041732 C13.3670472,24.5685039 13.4095669,24.5334252 13.4523228,24.4985827 C13.5022835,24.4578346 13.5524803,24.4173228 13.6032677,24.3776378 C13.6468504,24.343622 13.6909055,24.3101969 13.7350787,24.2770079 C13.7865748,24.2385039 13.8383071,24.2003543 13.8906299,24.1630315 C13.9358661,24.1306693 13.9813386,24.0988976 14.0271654,24.0674803 C14.0800787,24.0312205 14.1333465,23.9955512 14.1869685,23.9604724 C14.233622,23.93 14.2805118,23.9 14.3277559,23.8703543 C14.3820866,23.8363386 14.4368898,23.8030315 14.4920472,23.7701969 C14.54,23.7417323 14.588189,23.7133858 14.6367323,23.6858661 C14.6924803,23.6540945 14.7488189,23.6232677 14.8053937,23.5927953 C14.8546457,23.5662205 14.9040157,23.5398819 14.9537402,23.514252 C15.0109055,23.4848425 15.0686614,23.4564961 15.1265354,23.4283858 C15.1769685,23.403937 15.2274016,23.3794882 15.2783071,23.3559843 C15.3370079,23.328937 15.3961811,23.3029528 15.4554724,23.2772047 C15.5068504,23.2548819 15.5581102,23.2325591 15.6098425,23.2112992 C15.6700787,23.1866142 15.7307874,23.1631102 15.7916142,23.1398425 C15.8438189,23.1197638 15.8957874,23.0995669 15.9484646,23.0805512 C16.0101181,23.0582283 16.0724803,23.0374409 16.1347244,23.0165354 C16.1875197,22.9988189 16.2401969,22.980748 16.2934646,22.9639764 C16.3566535,22.9441339 16.4205512,22.9258268 16.4844488,22.9075197 C16.5377165,22.8921654 16.5908661,22.8762205 16.6446063,22.8619291 C16.709685,22.8445669 16.7753543,22.8289764 16.8410236,22.8130315 C16.8944094,22.8001575 16.9476772,22.7865748 17.0014173,22.7746457 C17.0685039,22.7597638 17.1364173,22.7468898 17.2040945,22.7336614 C17.2572441,22.7232677 17.3101575,22.7119291 17.3636614,22.7024803 C17.4334646,22.6901969 17.5039764,22.6800394 17.574252,22.6694094 C17.6264567,22.6614961 17.6783071,22.6526378 17.730748,22.6457874 C17.8048031,22.6359843 17.879685,22.6286614 17.9543307,22.620748 C18.0037008,22.6155512 18.0528346,22.6091732 18.1024409,22.6048031 C18.1853543,22.5974803 18.2690945,22.5929921 18.3525984,22.5880315 C18.3945276,22.5855512 18.4362205,22.5817717 18.4782677,22.5798819 C18.6041732,22.5743307 18.7306693,22.571378 18.857874,22.571378 L21.0385433,22.571378 C23.5979921,22.571378 26.0004724,23.7062992 27.6299213,25.6852362 C27.9407874,26.0628346 28.4992126,26.1169291 28.876811,25.8059449 C29.2544094,25.4949606 29.3085039,24.9367717 28.9975197,24.5590551 C27.6086614,22.8724409 25.7542126,21.6945276 23.6964961,21.1470866 C24.8675591,20.1094882 25.6076378,18.5959055 25.6076378,16.9120079 C25.6076378,13.7914173 23.0688583,11.2525197 19.9481496,11.2525197 C16.8274409,11.2525197 14.2886614,13.7912992 14.2886614,16.9120079 C14.2886614,18.5959055 15.0287402,20.1093701 16.199685,21.1469685 C16.1706299,21.1547638 16.1413386,21.1620866 16.1122835,21.17 C15.9908661,21.2034252 15.8703937,21.2392126 15.750748,21.2770079 C15.7361024,21.2816142 15.7211024,21.2856299 15.7064567,21.2902362 C15.5722835,21.3332283 15.4395276,21.3791732 15.3075984,21.4273622 C15.2664961,21.4423622 15.2261024,21.4588976 15.1852362,21.4744882 C15.0948819,21.5088583 15.0046457,21.5437008 14.9154724,21.5806693 C14.8659843,21.6011024 14.8172047,21.6227165 14.7680709,21.6439764 C14.6883465,21.6784646 14.6087402,21.7133071 14.5300787,21.749685 C14.4787008,21.7734252 14.4279134,21.797874 14.3770079,21.8224409 C14.3011811,21.8590551 14.2259449,21.896378 14.151063,21.9347638 C14.1005118,21.9606299 14.0500787,21.9868504 14,22.0136614 C13.925,22.0537008 13.8507087,22.0949213 13.7767717,22.1368504 C13.7290551,22.1638976 13.6812205,22.1907087 13.6339764,22.2184646 C13.5562598,22.2641732 13.4796063,22.3114173 13.4030709,22.3591339 C13.361378,22.3851181 13.3193307,22.4103937 13.2779921,22.4369685 C13.1830315,22.4980315 13.0893701,22.5612205 12.9965354,22.6253543 C12.9752756,22.64 12.9535433,22.6538189 12.9324016,22.6687008 C12.8190157,22.7483071 12.7074016,22.8302756 12.5973228,22.9143701 C12.5654331,22.9387008 12.5344882,22.9643307 12.5028346,22.9890157 C12.4253543,23.0497244 12.3481102,23.1107874 12.2722835,23.173622 C12.2320079,23.2070472 12.1925591,23.2415354 12.152874,23.2755512 C12.0869685,23.3318898 12.0214173,23.3885827 11.9570472,23.4465748 C11.9154724,23.4840157 11.8746063,23.5220472 11.833622,23.5601969 C11.7724409,23.617126 11.7117323,23.6746457 11.6518504,23.7331102 C11.6112205,23.7727953 11.5708268,23.8127165 11.5307874,23.8531102 C11.4716142,23.912874 11.4133858,23.9734646 11.355748,24.0346457 C11.3175984,24.0750394 11.2794488,24.1151969 11.2420079,24.1562992 C11.1823622,24.2216142 11.1240157,24.2882283 11.0660236,24.3550787 C11.0328346,24.3933465 10.9990551,24.4311417 10.9663386,24.47 C10.8979528,24.5512598 10.8312205,24.6342913 10.765315,24.7177953 C10.745,24.7435433 10.7238583,24.7684646 10.7037795,24.7944488 C10.618622,24.9042913 10.5357087,25.0160236 10.4549213,25.1295276 C10.4334252,25.1597638 10.4131102,25.1908268 10.3919685,25.2212992 C10.3333858,25.3055118 10.2752756,25.3901969 10.2191732,25.4762992 C10.1908268,25.5198819 10.1636614,25.5641732 10.1359055,25.6082283 C10.0887795,25.6829921 10.0420079,25.7579921 9.99677165,25.8340551 C9.96783465,25.8825984 9.93984252,25.9317323 9.91173228,25.9808661 C9.86956693,26.0544488 9.82811024,26.1285039 9.78771654,26.2032677 C9.76019685,26.2541732 9.73314961,26.3054331 9.70645669,26.356811 C9.6673622,26.4321654 9.62933071,26.5082283 9.59212598,26.5846457 C9.5669685,26.6361417 9.54192913,26.6875197 9.51759843,26.7394882 C9.48003937,26.8200394 9.44401575,26.9014173 9.40846457,26.9831496 C9.38720472,27.0320472 9.36535433,27.0804724 9.34468504,27.1298425 C9.30488189,27.2251575 9.26732283,27.3216535 9.23023622,27.4185039 C9.2161811,27.4551181 9.2011811,27.4912598 9.18759843,27.5281102 C9.18559055,27.5335433 9.18334646,27.5387402 9.18133858,27.5441732 C7.61814961,25.3324409 6.77165354,22.6896063 6.77165354,19.9481496 C6.77165354,19.458937 6.37503937,19.0623228 5.88582677,19.0623228 C5.39661417,19.0623228 5,19.458937 5,19.9481496 C5,23.6967323 6.39488189,27.2826772 8.92751969,30.0455118 C11.7534252,33.128189 15.7703543,34.8961811 19.9480315,34.8961811 C24.1259449,34.8961811 28.1427559,33.128189 30.9686614,30.0453937 C30.9688976,30.0451575 30.9691339,30.0448031 30.9693701,30.0445669 C33.5016535,27.2818504 34.8961811,23.6962598 34.8961811,19.9481496 Z M19.9481496,13.0241732 C22.0918504,13.0241732 23.8359843,14.768189 23.8359843,16.9120079 C23.8359843,19.0558268 22.0919685,20.7998425 19.9481496,20.7998425 C17.8043307,20.7998425 16.060315,19.0558268 16.060315,16.9120079 C16.060315,14.768189 17.8043307,13.0241732 19.9481496,13.0241732 Z" id="Shape"></path>
                    </g>
                </g>
            </g>
        </g>
    </g>
</svg>