<?xml version="1.0" encoding="UTF-8"?>
<svg width="40px" height="40px" viewBox="0 0 40 40" version="1.1" xmlns="http://www.w3.org/2000/svg" xmlns:xlink="http://www.w3.org/1999/xlink">
    <!-- Generator: Sketch 54.1 (76490) - https://sketchapp.com -->
    <title>OS/icon/sidemenu/setting</title>
    <desc>Created with Sketch.</desc>
    <g id="Page-1" stroke="none" stroke-width="1" fill="none" fill-rule="evenodd">
        <g id="B.-Guest-Management-_-Guestlist" transform="translate(-40.000000, -837.000000)" fill="#969696" fill-rule="nonzero">
            <g id="OS/el/sidemenu" transform="translate(0.000000, 3.000000)">
                <g id="Setting" transform="translate(40.000000, 829.000000)">
                    <g id="OS/icon/sidemenu/setting" transform="translate(0.000000, 5.000000)">
                        <path d="M31.6020877,17.6591378 L29.708142,17.3378434 C29.5108559,16.7008914 29.2572025,16.0864864 28.9471816,15.5002651 L30.0632568,13.9388873 C30.5367432,13.2737516 30.4634656,12.3662359 29.882881,11.7912881 L28.2031315,10.1115386 C27.8874739,9.795881 27.4703549,9.62114196 27.0250522,9.62114196 C26.6755741,9.62114196 26.3430063,9.72824008 26.0611691,9.93116284 L24.4941545,11.047238 C23.8853862,10.7259436 23.2484342,10.4610167 22.5889353,10.2637307 L22.2732777,8.39233194 C22.1379958,7.58627766 21.4446764,7.00005637 20.6273486,7.00005637 L18.2542797,7.00005637 C17.436952,7.00005637 16.7436326,7.58627766 16.6083507,8.39233194 L16.2814196,10.3088246 C15.6501044,10.5061106 15.0356994,10.7654008 14.4494781,11.0810585 L12.8993737,9.9649833 C12.6175365,9.76206054 12.2793319,9.65496242 11.9298539,9.65496242 C11.4845511,9.65496242 11.0617954,9.82970146 10.7517745,10.1453591 L9.06638831,11.8251086 C8.4914405,12.4000564 8.4125261,13.307572 8.88601253,13.9727077 L10.0133612,15.5566326 C9.70334029,16.1484906 9.45532359,16.7628956 9.26367432,17.3998476 L7.39227557,17.7155052 C6.58622129,17.8507871 6,18.5441065 6,19.3614342 L6,21.7345031 C6,22.5518309 6.58622129,23.2451503 7.39227557,23.3804322 L9.30876827,23.7073633 C9.50605428,24.3386785 9.76534447,24.9530835 10.0810021,25.5393048 L8.97056367,27.0837724 C8.49707724,27.7489081 8.57035491,28.6564238 9.15093946,29.2313716 L10.8306889,30.9111211 C11.1463466,31.2267787 11.5634656,31.4015177 12.0087683,31.4015177 C12.3582463,31.4015177 12.6908142,31.2944196 12.9726514,31.0914969 L14.5565762,29.9641482 C15.1258873,30.2628956 15.723382,30.5052756 16.3377871,30.6969248 L16.6534447,32.5908706 C16.7887265,33.3969248 17.4820459,33.9831461 18.2993737,33.9831461 L20.6780793,33.9831461 C21.4954071,33.9831461 22.1887265,33.3969248 22.3240084,32.5908706 L22.6453027,30.6969248 C23.2822547,30.4996388 23.8966597,30.2459854 24.482881,29.9359645 L26.0442589,31.0520397 C26.326096,31.2549624 26.6643006,31.3620605 27.0137787,31.3620605 L27.0137787,31.3620605 C27.4590814,31.3620605 27.8762004,31.1873215 28.191858,30.8716639 L29.8716075,29.1919144 C30.4465553,28.6169666 30.5254697,27.7094509 30.0519833,27.0443152 L28.9359081,25.4773006 C29.245929,24.8854426 29.5052192,24.2710376 29.6968685,23.6397223 L31.5908142,23.3240647 C32.3968685,23.1887829 32.9830898,22.4954635 32.9830898,21.6781357 L32.9830898,19.3050668 C32.9943633,18.487739 32.408142,17.7944196 31.6020877,17.6591378 Z M31.4724426,21.6781357 C31.4724426,21.7514134 31.4217119,21.8134175 31.3484342,21.824691 L28.9810021,22.219263 C28.6822547,22.2699937 28.4455115,22.4898267 28.3722338,22.7773006 C28.1580376,23.6059019 27.8311065,24.4006827 27.3914405,25.139096 C27.2392484,25.3983862 27.2505219,25.7196806 27.425261,25.9676973 L28.8175365,27.9292839 C28.8569937,27.9856514 28.851357,28.0702025 28.8006263,28.1209332 L27.1208768,29.8006827 C27.0814196,29.8401399 27.0419624,29.8457766 27.0137787,29.8457766 C26.9799582,29.8457766 26.9517745,29.8345031 26.9292276,29.8175929 L24.9732777,28.4253173 C24.7308977,28.2505783 24.4039666,28.2393048 24.1446764,28.3914969 C23.406263,28.8311628 22.6114823,29.1580939 21.782881,29.3722902 C21.4897704,29.4455678 21.2699374,29.6879478 21.2248434,29.9810585 L20.8246347,32.3484906 C20.8133612,32.4217683 20.751357,32.472499 20.6780793,32.472499 L18.3050104,32.472499 C18.2317328,32.472499 18.1697286,32.4217683 18.1584551,32.3484906 L17.7638831,29.9810585 C17.7131524,29.6823111 17.4933194,29.4455678 17.2058455,29.3722902 C16.3997912,29.1637307 15.6219207,28.8424363 14.8947808,28.4253173 C14.7764092,28.3576764 14.6411273,28.3238559 14.5114823,28.3238559 C14.3592902,28.3238559 14.2014614,28.3689499 14.0718163,28.4647745 L12.0989562,29.8683236 C12.0707724,29.8852338 12.0425887,29.8965073 12.014405,29.8965073 C11.991858,29.8965073 11.9467641,29.8908706 11.9073069,29.8514134 L10.2275574,28.1716639 C10.1768267,28.1209332 10.17119,28.0420188 10.2106472,27.9800146 L11.597286,26.0353382 C11.7720251,25.7873215 11.7832985,25.4603904 11.6311065,25.2011002 C11.1914405,24.4683236 10.8532359,23.6735428 10.6390397,22.8449415 C10.5601253,22.5574676 10.323382,22.3376347 10.0302714,22.286904 L7.64592902,21.8810585 C7.57265136,21.869785 7.52192067,21.8077808 7.52192067,21.7345031 L7.52192067,19.3614342 C7.52192067,19.2881566 7.57265136,19.2261524 7.64592902,19.2148789 L9.99645094,18.8203069 C10.2951983,18.7695762 10.5375783,18.5497432 10.6108559,18.2566326 C10.8194154,17.4280313 11.1407098,16.6276138 11.574739,15.8892004 C11.7269311,15.6299102 11.7100209,15.3086159 11.5352818,15.0662359 L10.1317328,13.0933758 C10.0922756,13.0370084 10.0979123,12.9524572 10.148643,12.9017265 L11.8283925,11.221977 C11.8678497,11.1825198 11.9073069,11.1768831 11.9354906,11.1768831 C11.9693111,11.1768831 11.9974948,11.1881566 12.0200418,11.2050668 L13.9647182,12.5917056 C14.2127349,12.7664447 14.539666,12.7777182 14.7989562,12.6255261 C15.5317328,12.1858601 16.3265136,11.8476555 17.1551148,11.6334593 C17.4425887,11.5545449 17.6624217,11.3178017 17.7131524,11.024691 L18.1189979,8.64034864 C18.1302714,8.56707098 18.1922756,8.51634029 18.2655532,8.51634029 L20.6386221,8.51634029 C20.7118998,8.51634029 20.773904,8.56707098 20.7851775,8.64034864 L21.1797495,10.9908706 C21.2304802,11.289618 21.4503132,11.5319979 21.7434238,11.6052756 C22.594572,11.8194718 23.406263,12.1520397 24.1615866,12.5973424 C24.4208768,12.7495344 24.7421712,12.738261 24.9901879,12.5635219 L26.9348643,11.1656096 C26.963048,11.1486994 26.9912317,11.1374259 27.0194154,11.1374259 C27.0419624,11.1374259 27.0870564,11.1430626 27.1265136,11.1825198 L28.806263,12.8622693 C28.8569937,12.913 28.8626305,12.9919144 28.8231733,13.0539186 L27.4308977,15.0098685 C27.2561587,15.2522484 27.2448852,15.5791795 27.3970772,15.8384697 C27.8367432,16.5768831 28.1636743,17.3716639 28.3778706,18.2002651 C28.4511482,18.4933758 28.6935282,18.7132088 28.9866388,18.7583027 L31.354071,19.1585115 C31.4273486,19.169785 31.4780793,19.2317891 31.4780793,19.3050668 L31.4780793,21.6781357 L31.4724426,21.6781357 L31.4724426,21.6781357 Z" id="Shape"></path>
                        <path d="M19.4943633,14.6660271 C16.2814196,14.6660271 13.6716075,17.2758392 13.6716075,20.4887829 C13.6716075,23.7017265 16.2814196,26.3115386 19.4943633,26.3115386 C22.7073069,26.3115386 25.317119,23.7017265 25.317119,20.4887829 C25.317119,17.2758392 22.7073069,14.6660271 19.4943633,14.6660271 Z M19.4943633,24.789618 C17.1212944,24.789618 15.1935282,22.8618518 15.1935282,20.4887829 C15.1935282,18.115714 17.1212944,16.1879478 19.4943633,16.1879478 C21.8674322,16.1879478 23.7951983,18.115714 23.7951983,20.4887829 C23.7951983,22.8618518 21.8674322,24.789618 19.4943633,24.789618 Z" id="Shape"></path>
                    </g>
                </g>
            </g>
        </g>
    </g>
</svg>