<?xml version="1.0" encoding="UTF-8"?>
<svg width="40px" height="40px" viewBox="0 0 40 40" version="1.1" xmlns="http://www.w3.org/2000/svg" xmlns:xlink="http://www.w3.org/1999/xlink">
    <!-- Generator: Sketch 54.1 (76490) - https://sketchapp.com -->
    <title>OS/icon/sidemenu/sales</title>
    <desc>Created with Sketch.</desc>
    <g id="Page-1" stroke="none" stroke-width="1" fill="none" fill-rule="evenodd">
        <g id="B.-Guest-Management-_-Guestlist" transform="translate(-40.000000, -517.000000)">
            <g id="OS/el/sidemenu" transform="translate(0.000000, 3.000000)">
                <g id="Sales" transform="translate(40.000000, 509.000000)">
                    <g id="OS/icon/sidemenu/sales" transform="translate(0.000000, 5.000000)">
                        <path d="M6,28 L6,12.8 C6,10.701318 7.3948052,9 9.11538462,9 L9.11538462,9 L29.8846154,9 C31.6051948,9 33,10.701318 33,12.8 L33,28" id="Path" stroke="#979797" stroke-width="1.7"></path>
                        <path d="M35,28 C35,29.6568542 33.3671561,31 31.3529412,31 L7.64705882,31 C5.63284385,31 4,29.6568542 4,28 L35,28 Z" id="Path" stroke="#979797" stroke-width="1.7" stroke-linejoin="round"></path>
                        <path d="M19.5,26 C15.9101491,26 13,23.0898509 13,19.5 C13,15.9101491 15.9101491,13 19.5,13 C23.0898509,13 26,15.9101491 26,19.5 C26,23.0898509 23.0898509,26 19.5,26 Z M18.7875186,16.7398061 L18.7875186,16.8941126 C17.6668648,17.1366767 17.2576523,17.9384937 17.2576523,18.6521975 C17.2576523,20.0064896 18.4453195,20.3872084 19.3124814,20.6652486 C19.9224368,20.8607997 20.2928678,20.9966471 20.2928678,21.2344522 C20.2928678,21.377366 20.2928678,21.6163248 19.5414562,21.6163248 C19.1475483,21.6163248 18.7976226,21.4549519 18.4405646,21.1085554 C18.338633,21.0096261 18.1491828,20.8257562 17.8121842,20.8257562 C17.3643388,20.8257562 17,21.1829686 17,21.621949 C17,21.7673144 17.0435364,21.9151314 17.1218425,22.0374229 C17.4511144,22.5541335 18.0717682,22.9486967 18.78737,23.1099254 L18.78737,23.260194 C18.78737,23.6681689 19.1255572,24 19.5413076,24 C19.9616642,24 20.3037147,23.6681689 20.3037147,23.260194 L20.3037147,23.1192991 C21.3728083,22.9120669 22,22.2250424 22,21.2344522 C22,19.8031511 20.7156018,19.3934456 19.8658247,19.1223276 C19.4231798,18.9811443 18.9652303,18.8350579 18.9652303,18.6521975 C18.9652303,18.4024228 19.3680535,18.3754552 19.5413076,18.3754552 C19.8806835,18.3754552 20.2362556,18.5035152 20.4523031,18.7062768 C20.6564636,18.8908678 20.8561664,18.9807117 21.0628529,18.9807117 C21.5153046,18.9807117 21.8832095,18.6269604 21.8832095,18.1921621 C21.8832095,18.0302124 21.8326895,17.8714353 21.7316493,17.7259257 C21.4380386,17.3234308 20.93789,17.037459 20.3035661,16.9037748 L20.3035661,16.7398061 C20.3035661,16.3318312 19.9615156,16 19.541159,16 C19.1257058,15.9998558 18.7875186,16.331687 18.7875186,16.7398061 Z" id="Combined-Shape" fill="#969696"></path>
                    </g>
                </g>
            </g>
        </g>
    </g>
</svg>