<?xml version="1.0" encoding="UTF-8"?>
<svg width="40px" height="40px" viewBox="0 0 40 40" version="1.1" xmlns="http://www.w3.org/2000/svg" xmlns:xlink="http://www.w3.org/1999/xlink">
    <!-- Generator: Sketch 54.1 (76490) - https://sketchapp.com -->
    <title>OS/icon/sidemenu/document</title>
    <desc>Created with Sketch.</desc>
    <g id="Page-1" stroke="none" stroke-width="1" fill="none" fill-rule="evenodd">
        <g id="B.-Guest-Management-_-Guestlist" transform="translate(-40.000000, -677.000000)" fill="#969696">
            <g id="OS/el/sidemenu" transform="translate(0.000000, 3.000000)">
                <g id="KPI-Copy" transform="translate(40.000000, 669.000000)">
                    <g id="OS/icon/sidemenu/document" transform="translate(0.000000, 5.000000)">
                        <g id="note" transform="translate(7.000000, 7.000000)" fill-rule="nonzero" stroke="#969696" stroke-width="0.4">
                            <path d="M25.457261,3.55271368e-15 C25.7492542,3.55271368e-15 25.9860746,0.236820339 25.9860746,0.528813559 L25.9860746,25.457261 C25.9860746,25.7492542 25.7492542,25.9860746 25.457261,25.9860746 C25.1652678,25.9860746 24.9284475,25.7492542 24.9284475,25.457261 L24.9284475,1.05762712 L1.05762712,1.05762712 L1.05762712,24.9284475 L21.718461,24.9284475 C22.0104542,24.9284475 22.2472746,25.1652678 22.2472746,25.457261 C22.2472746,25.7492542 22.0104542,25.9860746 21.718461,25.9860746 L0.528813559,25.9860746 C0.236820339,25.9860746 -2.09610107e-13,25.7492542 -2.09610107e-13,25.457261 L-2.09610107e-13,0.528813559 C-2.09610107e-13,0.236820339 0.236820339,3.55271368e-15 0.528813559,3.55271368e-15 L25.457261,3.55271368e-15 Z M21.7531864,6.99981695 C22.0452678,6.99981695 22.282,7.23663729 22.282,7.52863051 C22.282,7.82062373 22.0451797,8.05744407 21.7531864,8.05744407 L9.41420339,8.05744407 C9.12221017,8.05744407 8.88538983,7.82062373 8.88538983,7.52863051 C8.88538983,7.23663729 9.12221017,6.99981695 9.41420339,6.99981695 L21.7531864,6.99981695 Z M21.7531864,12 C22.0452678,12 22.282,12.2368203 22.282,12.5288136 C22.282,12.8208068 22.0451797,13.0576271 21.7531864,13.0576271 L9.41420339,13.0576271 C9.12221017,13.0576271 8.88538983,12.8208068 8.88538983,12.5288136 C8.88538983,12.2368203 9.12221017,12 9.41420339,12 L21.7531864,12 Z M21.7531864,17.9286305 C22.0452678,17.9286305 22.282,18.1654508 22.282,18.4574441 C22.282,18.7494373 22.0451797,18.9862576 21.7531864,18.9862576 L9.41420339,18.9862576 C9.12221017,18.9862576 8.88538983,18.7494373 8.88538983,18.4574441 C8.88538983,18.1654508 9.12221017,17.9286305 9.41420339,17.9286305 L21.7531864,17.9286305 Z" id="Combined-Shape"></path>
                        </g>
                        <circle id="Oval" cx="12.5" cy="14.5" r="1.5"></circle>
                        <circle id="Oval-Copy" cx="12.5" cy="19.5" r="1.5"></circle>
                        <circle id="Oval-Copy-2" cx="12.5" cy="25.5" r="1.5"></circle>
                    </g>
                </g>
            </g>
        </g>
    </g>
</svg>