<?xml version="1.0" encoding="UTF-8"?>
<svg width="35px" height="35px" viewBox="0 0 35 35" version="1.1" xmlns="http://www.w3.org/2000/svg" xmlns:xlink="http://www.w3.org/1999/xlink">
    <!-- Generator: Sketch 54.1 (76490) - https://sketchapp.com -->
    <title>OS/icon/edit Copy</title>
    <desc>Created with Sketch.</desc>
    <g id="Page-1" stroke="none" stroke-width="1" fill="none" fill-rule="evenodd">
        <g id="B.-Guest-Management-_-Guestlist" transform="translate(-1824.000000, -376.000000)" fill="#998F88" fill-rule="nonzero">
            <g id="el/Guest/Guestlist/list" transform="translate(410.000000, 353.000000)">
                <g id="OS/icon/edit-Copy" transform="translate(1414.000000, 23.000000)">
                    <g id="more-button-of-circular-shape" transform="translate(5.000000, 5.000000)">
                        <path d="M13.2826087,11.3043478 L12.7173913,11.3043478 C11.9368261,11.3043478 11.3043478,11.9368261 11.3043478,12.7173913 L11.3043478,13.2826087 C11.3043478,14.0631739 11.9368261,14.6956522 12.7173913,14.6956522 L13.2826087,14.6956522 C14.0631739,14.6956522 14.6956522,14.0631739 14.6956522,13.2826087 L14.6956522,12.7173913 C14.6956522,11.9368261 14.0631739,11.3043478 13.2826087,11.3043478 Z M8.19565217,11.3043478 L7.63043478,11.3043478 C6.84986957,11.3043478 6.2173913,11.9368261 6.2173913,12.7173913 L6.2173913,13.2826087 C6.2173913,14.0631739 6.84986957,14.6956522 7.63043478,14.6956522 L8.19565217,14.6956522 C8.97621739,14.6956522 9.60869565,14.0631739 9.60869565,13.2826087 L9.60869565,12.7173913 C9.60869565,11.9368261 8.97621739,11.3043478 8.19565217,11.3043478 Z M13,0 C5.82004348,0 0,5.8206087 0,13 C0,20.1793913 5.82004348,26 13,26 C20.1793913,26 26,20.1793913 26,13 C26,5.8206087 20.1793913,0 13,0 Z M13,23.7391304 C7.06917391,23.7391304 2.26086957,18.9308261 2.26086957,13 C2.26086957,7.06917391 7.06917391,2.26086957 13,2.26086957 C18.9308261,2.26086957 23.7391304,7.06917391 23.7391304,13 C23.7391304,18.9308261 18.9308261,23.7391304 13,23.7391304 Z M18.3695652,11.3043478 L17.8043478,11.3043478 C17.0237826,11.3043478 16.3913043,11.9368261 16.3913043,12.7173913 L16.3913043,13.2826087 C16.3913043,14.0631739 17.0237826,14.6956522 17.8043478,14.6956522 L18.3695652,14.6956522 C19.1501304,14.6956522 19.7826087,14.0631739 19.7826087,13.2826087 L19.7826087,12.7173913 C19.7826087,11.9368261 19.1501304,11.3043478 18.3695652,11.3043478 Z" id="Shape"></path>
                    </g>
                </g>
            </g>
        </g>
    </g>
</svg>