<?xml version="1.0" encoding="UTF-8"?>
<svg width="40px" height="40px" viewBox="0 0 40 40" version="1.1" xmlns="http://www.w3.org/2000/svg" xmlns:xlink="http://www.w3.org/1999/xlink">
    <!-- Generator: Sketch 54.1 (76490) - https://sketchapp.com -->
    <title>OS/icon/sidemenu/calendar</title>
    <desc>Created with Sketch.</desc>
    <g id="Page-1" stroke="none" stroke-width="1" fill="none" fill-rule="evenodd">
        <g id="B.-Guest-Management-_-Guestlist" transform="translate(-40.000000, -360.000000)" fill="#969696" fill-rule="nonzero">
            <g id="OS/el/sidemenu" transform="translate(0.000000, 3.000000)">
                <g id="Calendat" transform="translate(40.000000, 352.000000)">
                    <g id="OS/icon/sidemenu/calendar" transform="translate(0.000000, 5.000000)">
                        <path d="M29.0332491,8.44128114 L26.672911,8.44128114 L26.672911,7 L25.2316299,7 L25.2316299,8.44128114 L20.5874377,8.44128114 L20.5874377,7 L19.1461566,7 L19.1461566,8.44128114 L14.5020605,8.44128114 L14.5020605,7 L13.0607794,7 L13.0607794,8.44128114 L10.5328683,8.44128114 C8.61135231,8.44128114 7.0480427,10.0045907 7.0480427,11.9261068 L7.0480427,33.1906726 C7.0480427,33.5887544 7.37069751,33.9113132 7.76868327,33.9113132 L31.7974342,33.9113132 C32.1954199,33.9113132 32.5180747,33.5887544 32.5180747,33.1906726 L32.5180747,11.9261068 C32.5180747,10.0045907 30.9547651,8.44128114 29.0332491,8.44128114 Z M8.48932384,32.470032 L8.48932384,11.9261068 C8.48932384,10.7993132 9.40607473,9.88256228 10.5328683,9.88256228 L13.0607794,9.88256228 L13.0607794,10.8434164 L14.5020605,10.8434164 L14.5020605,9.88256228 L19.1461566,9.88256228 L19.1461566,10.8434164 L20.5874377,10.8434164 L20.5874377,9.88256228 L25.2315338,9.88256228 L25.2315338,10.8434164 L26.6728149,10.8434164 L26.6728149,9.88256228 L29.033153,9.88256228 C30.1599466,9.88256228 31.0766975,10.7993132 31.0766975,11.9261068 L31.0766975,15.0772278 L11.6157509,15.0772278 C11.2177651,15.0772278 10.8951103,15.3997865 10.8951103,15.7978683 C10.8951103,16.1959502 11.2177651,16.5185089 11.6157509,16.5185089 L31.0767936,16.5185089 L31.0767936,32.470032 L8.48932384,32.470032 L8.48932384,32.470032 Z" id="Shape" stroke="#969696" stroke-width="0.3"></path>
                        <path d="M14.725363,23.1233238 C15.2269288,23.1233238 15.5614021,22.9561352 15.8957794,22.621758 C16.2301566,22.2873808 16.3973452,21.7857189 16.3973452,21.4513416 C16.3973452,21.1169644 16.2301566,20.6153025 15.8957794,20.2809253 C15.2270249,19.6121708 14.2237972,19.6121708 13.5549466,20.2809253 C13.2205694,20.6153025 13.0533808,21.1169644 13.0533808,21.4513416 C13.0533808,21.7857189 13.2205694,22.2873808 13.5549466,22.621758 C13.8893238,22.9561352 14.2237972,23.1233238 14.725363,23.1233238 L14.725363,23.1233238 Z" id="Path"></path>
                        <path d="M19.7413096,23.1233238 C20.2428754,23.1233238 20.5773488,22.9561352 20.911726,22.621758 C21.2461032,22.2873808 21.4132918,21.9530036 21.4132918,21.4513416 C21.4132918,21.1169644 21.2461032,20.6153025 20.911726,20.2809253 C20.2429715,19.6121708 19.2397438,19.6121708 18.5708932,20.2809253 C18.236516,20.6153025 18.0693274,21.1169644 18.0693274,21.4513416 C18.0693274,21.7857189 18.236516,22.2873808 18.5708932,22.621758 C18.9052705,22.9561352 19.2397438,23.1233238 19.7413096,23.1233238 L19.7413096,23.1233238 Z" id="Path"></path>
                        <path d="M24.7573523,23.1233238 C25.2589181,23.1233238 25.5933915,22.9561352 25.9277687,22.621758 C26.2621459,22.2873808 26.4293345,21.9530036 26.4293345,21.4513416 C26.4293345,21.1169644 26.2621459,20.6153025 25.9277687,20.2809253 C25.2590142,19.6121708 24.2557865,19.6121708 23.5869359,20.2809253 C23.2525587,20.6153025 23.0853701,21.1169644 23.0853701,21.4513416 C23.0853701,21.7857189 23.2525587,22.2873808 23.5869359,22.621758 C23.9213132,22.9561352 24.2557865,23.1233238 24.7573523,23.1233238 L24.7573523,23.1233238 Z" id="Path"></path>
                    </g>
                </g>
            </g>
        </g>
    </g>
</svg>