<?xml version="1.0" encoding="UTF-8"?>
<svg width="40px" height="40px" viewBox="0 0 40 40" version="1.1" xmlns="http://www.w3.org/2000/svg" xmlns:xlink="http://www.w3.org/1999/xlink">
    <!-- Generator: Sketch 54.1 (76490) - https://sketchapp.com -->
    <title>OS/icon/sidemenu/customer</title>
    <desc>Created with Sketch.</desc>
    <g id="Page-1" stroke="none" stroke-width="1" fill="none" fill-rule="evenodd">
        <g id="B.-Guest-Management-_-Guestlist" transform="translate(-40.000000, -440.000000)" fill="#969696" fill-rule="nonzero" stroke="#969696" stroke-width="0.3">
            <g id="OS/el/sidemenu" transform="translate(0.000000, 3.000000)">
                <g id="Customer" transform="translate(40.000000, 432.000000)">
                    <g id="OS/icon/sidemenu/customer" transform="translate(0.000000, 5.000000)">
                        <path d="M30.4074251,17.6740314 C30.4074251,11.7883136 25.6191115,7 19.7334878,7 C19.3437282,7 19.0279129,7.31581533 19.0279129,7.70557491 C19.0279129,8.09533449 19.3437282,8.41114983 19.7334878,8.41114983 C24.8410035,8.41114983 28.9962753,12.5664216 28.9962753,17.6740314 C28.9962753,20.5054564 27.6837178,23.196331 25.4684007,24.9471916 L24.8259512,24.9471916 L24.8259512,15.7448014 C24.8259512,15.4749895 24.6720418,15.2287909 24.4294181,15.1105366 C24.1869826,14.9923763 23.8981672,15.0227631 23.685554,15.1891847 L19.7627456,18.2586237 L15.8540488,15.1898432 C15.6414355,15.0231394 15.3525261,14.9921882 15.1098084,15.1102544 C14.8669024,15.2284146 14.7127108,15.4747073 14.7127108,15.7448014 L14.7127108,22.4780557 C14.7127108,22.8678153 15.0285261,23.1836307 15.4182857,23.1836307 C15.8080453,23.1836307 16.1238606,22.8678153 16.1238606,22.4780557 L16.1238606,17.1958397 L19.32623,19.7101324 C19.581554,19.9106098 19.9409268,19.9109861 20.1968153,19.7107909 L23.4148014,17.1928293 L23.4148014,24.9471916 L13.9984808,24.9471916 C11.7831638,23.1962369 10.4707003,20.5054564 10.4707003,17.6740314 C10.4707003,15.8957003 10.9757979,14.168453 11.9312404,12.6791254 C12.8623171,11.227993 14.1738397,10.066899 15.7239408,9.32134146 C16.0750348,9.15237979 16.2229233,8.7308223 16.0539617,8.37963415 C15.8850941,8.02844599 15.4631603,7.88074564 15.1122544,8.04961324 C13.3264913,8.9085331 11.8158084,10.2459268 10.7435226,11.9171045 C9.64188502,13.6342857 9.05955052,15.6250418 9.05955052,17.6740314 C9.05955052,20.8453554 10.4881045,23.8638049 12.9120836,25.882878 L12.9120836,29.4353066 L12.9120836,33.2178467 C12.9120836,33.6076063 13.227899,33.9234216 13.6176585,33.9234216 L25.9210976,33.9234216 C26.3108571,33.9234216 26.6266725,33.6076063 26.6266725,33.2178467 L26.6266725,29.4353066 L26.6266725,25.8219164 C29.0068118,23.8034077 30.4074251,20.8138397 30.4074251,17.6740314 Z M25.2155226,32.5122718 L14.3232334,32.5122718 L14.3232334,30.1408815 L20.9564843,30.1408815 C21.3462439,30.1408815 21.6620592,29.8250662 21.6620592,29.4353066 C21.6620592,29.045547 21.3462439,28.7297317 20.9564843,28.7297317 L14.3232334,28.7297317 L14.3232334,26.3583415 L25.2155226,26.3583415 L25.2155226,29.4353066 L25.2155226,32.5122718 Z" id="Shape"></path>
                    </g>
                </g>
            </g>
        </g>
    </g>
</svg>