<?xml version="1.0" encoding="UTF-8"?>
<svg width="40px" height="40px" viewBox="0 0 40 40" version="1.1" xmlns="http://www.w3.org/2000/svg" xmlns:xlink="http://www.w3.org/1999/xlink">
    <!-- Generator: Sketch 54.1 (76490) - https://sketchapp.com -->
    <title>OS/icon/sidemenu/hr</title>
    <desc>Created with Sketch.</desc>
    <g id="Page-1" stroke="none" stroke-width="1" fill="none" fill-rule="evenodd">
        <g id="B.-Guest-Management-_-Guestlist" transform="translate(-40.000000, -757.000000)" fill="#969696" fill-rule="nonzero" stroke="#969696" stroke-width="0.3">
            <g id="OS/el/sidemenu" transform="translate(0.000000, 3.000000)">
                <g id="HR" transform="translate(40.000000, 749.000000)">
                    <g id="OS/icon/sidemenu/hr" transform="translate(0.000000, 5.000000)">
                        <path d="M28.1259904,17.5846923 C29.9001154,16.6382212 31.1107885,14.7689904 31.1107885,12.6217115 C31.1107885,9.52190385 28.5888846,7 25.4890769,7 C22.3892692,7 19.8673654,9.52190385 19.8673654,12.6217115 C19.8673654,14.7689904 21.0780385,16.6382212 22.8521635,17.5846923 C21.0794231,18.5182692 19.8673654,20.3784135 19.8673654,22.5173846 L19.8673654,33.3246538 C19.8673654,33.6831827 20.157875,33.9736923 20.5164038,33.9736923 L30.46175,33.9736923 C30.8202788,33.9736923 31.1107885,33.6831827 31.1107885,33.3246538 L31.1107885,22.5173846 C31.1107885,20.3784135 29.8987308,18.5182692 28.1259904,17.5846923 Z M21.1654423,12.6217115 C21.1654423,10.2376635 23.1050288,8.29807692 25.4890769,8.29807692 C27.873125,8.29807692 29.8127115,10.2376635 29.8127115,12.6217115 C29.8127115,15.0057596 27.873125,16.9453462 25.4890769,16.9453462 C23.1050288,16.9453462 21.1654423,15.0057596 21.1654423,12.6217115 Z M29.8127115,32.6755288 L21.1654423,32.6755288 L21.1654423,22.5173846 C21.1654423,20.1607692 23.0827019,18.2434231 25.4394038,18.2434231 L25.5388365,18.2434231 C27.8953654,18.2434231 29.8127115,20.1606827 29.8127115,22.5173846 L29.8127115,32.6755288 Z" id="Shape"></path>
                        <path d="M17.52875,17.4055577 L17.6062019,17.4055577 C18.3913654,17.4055577 19.1455481,17.6936442 19.7297692,18.2167692 C19.9969135,18.4560481 20.4072788,18.4332885 20.6462115,18.1662308 C20.8854038,17.8992596 20.8627308,17.4888942 20.5956731,17.2497885 C19.773125,16.5130865 18.7114712,16.1074808 17.6062019,16.1074808 L17.5675192,16.1074808 C15.7900192,16.1074808 14.343875,14.6613365 14.343875,12.8838365 C14.343875,11.1063365 15.7900192,9.66019231 17.5675192,9.66019231 C17.8646058,9.66019231 18.1583173,9.70043269 18.4407788,9.77970192 C18.7858942,9.876625 19.1441635,9.67533654 19.2410865,9.33030769 C19.3380096,8.98527885 19.1368077,8.62692308 18.7916923,8.53 C18.3950865,8.418625 17.98325,8.36220192 17.5675192,8.36220192 C15.0741731,8.36220192 13.0457981,10.3905769 13.0457981,12.8839231 C13.0457981,14.5189808 13.9181923,15.9541346 15.2218942,16.7483846 C13.9191442,17.5335481 13.0457981,18.9618654 13.0457981,20.5906058 L13.0457981,29.00725 C13.0457981,29.3657788 13.3363077,29.6562885 13.6948365,29.6562885 L17.5065096,29.6562885 C17.8650385,29.6562885 18.1555481,29.3657788 18.1555481,29.00725 C18.1555481,28.6487212 17.8650385,28.3582115 17.5065096,28.3582115 L14.343875,28.3582115 L14.343875,20.5906058 C14.343875,18.8343077 15.7725385,17.4055577 17.52875,17.4055577 Z" id="Path"></path>
                        <path d="M12.7960481,16.696375 C12.3499423,16.4796827 11.8707788,16.3698654 11.3717981,16.3698654 L11.3453173,16.3698654 C10.2468846,16.3698654 9.35320192,15.4761827 9.35320192,14.3776635 C9.35320192,13.2791442 10.2467981,12.3854615 11.3453173,12.3854615 C11.7038462,12.3854615 11.9943558,12.0949519 11.9943558,11.7364231 C11.9943558,11.3778942 11.7038462,11.0873846 11.3453173,11.0873846 C9.531125,11.0873846 8.055125,12.5633846 8.055125,14.3776635 C8.055125,15.4542885 8.57496154,16.4118365 9.37674038,17.0124135 C8.57539423,17.607625 8.055125,18.5609327 8.055125,19.6335769 L8.055125,25.3737596 C8.055125,25.7322885 8.34563462,26.0227981 8.70416346,26.0227981 L11.0282404,26.0227981 C11.3867692,26.0227981 11.6772788,25.7322885 11.6772788,25.3737596 C11.6772788,25.0152308 11.3867692,24.7247212 11.0282404,24.7247212 L9.35328846,24.7247212 L9.35328846,19.6335769 C9.35328846,18.5496827 10.2350288,17.6678558 11.3190096,17.6678558 L11.3717981,17.6678558 C11.6726923,17.6678558 11.961125,17.7338846 12.2289615,17.8639519 C12.55175,18.0207596 12.9397885,17.8861058 13.09625,17.5636635 C13.2528846,17.2413077 13.1184038,16.8529231 12.7960481,16.696375 Z" id="Path"></path>
                    </g>
                </g>
            </g>
        </g>
    </g>
</svg>