<?xml version="1.0" encoding="UTF-8"?>
<svg width="12px" height="15px" viewBox="0 0 12 15" version="1.1" xmlns="http://www.w3.org/2000/svg" xmlns:xlink="http://www.w3.org/1999/xlink">
    <!-- Generator: Sketch 54.1 (76490) - https://sketchapp.com -->
    <title>unlock</title>
    <desc>Created with Sketch.</desc>
    <g id="Page-1" stroke="none" stroke-width="1" fill="none" fill-rule="evenodd">
        <g id="A.-Log-in" transform="translate(-1089.000000, -677.000000)" fill="#FFFFFF" fill-rule="nonzero">
            <g id="unlock" transform="translate(1089.000000, 677.000000)">
                <path d="M10.0961538,5.625 L3.20516734,5.625 L3.20516734,3.75 C3.20516734,2.37121582 4.35509315,1.25003815 5.76923077,1.25003815 C7.18336839,1.25003815 8.3332942,2.37121582 8.3332942,3.75 C8.3332942,4.09503937 8.6199247,4.37496185 8.97439811,4.37496185 C9.32887151,4.37496185 9.61538462,4.09503937 9.61538462,3.75 C9.61538462,1.68182373 7.8904372,0 5.76923077,0 C3.64802434,0 1.92307692,1.68182373 1.92307692,3.75 L1.92307692,5.625 L1.44230769,5.625 C0.647442157,5.625 0,6.25556947 0,7.03125 L0,13.59375 C0,14.3694305 0.647442157,15 1.44230769,15 L10.0961538,15 C10.8910194,15 11.5384615,14.3694305 11.5384615,13.59375 L11.5384615,7.03125 C11.5384615,6.25556947 10.8910194,5.625 10.0961538,5.625 Z" id="Path"></path>
            </g>
        </g>
    </g>
</svg>